<svg width="20" height="20" viewBox="0 0 20 20" fill="none" xmlns="http://www.w3.org/2000/svg">
<path d="M7.5 14.1665V13.1665C6.94772 13.1665 6.5 13.6142 6.5 14.1665H7.5ZM12.5 14.1665H13.5C13.5 13.6142 13.0523 13.1665 12.5 13.1665V14.1665ZM7.5 15.1665H12.5V13.1665H7.5V15.1665ZM11.5 14.1665V14.9998H13.5V14.1665H11.5ZM8.5 14.9998V14.1665H6.5V14.9998H8.5ZM10 16.4998C9.17157 16.4998 8.5 15.8283 8.5 14.9998H6.5C6.5 16.9328 8.067 18.4998 10 18.4998V16.4998ZM11.5 14.9998C11.5 15.8283 10.8284 16.4998 10 16.4998V18.4998C11.933 18.4998 13.5 16.9328 13.5 14.9998H11.5Z" fill="#0E2F3E"/>
<path d="M17.5026 4.99984C17.5026 6.84079 16.0102 8.33317 14.1693 8.33317C12.3283 8.33317 10.8359 6.84079 10.8359 4.99984C10.8359 3.15889 12.3283 1.6665 14.1693 1.6665C16.0102 1.6665 17.5026 3.15889 17.5026 4.99984Z" stroke="#0E2F3E" stroke-width="2" stroke-linecap="round" stroke-linejoin="round"/>
<path d="M11.7083 2.75333C11.1688 2.58861 10.596 2.5 10.0026 2.5C6.78094 2.5 4.16927 5.11168 4.16927 8.33332V11.4353C4.16927 11.5835 4.11044 11.7255 4.0057 11.8302L3.58001 12.2559C3.42374 12.4122 3.33594 12.6242 3.33594 12.8452V13.3333C3.33594 13.7936 3.70904 14.1667 4.16927 14.1667H15.8359C16.2962 14.1667 16.6693 13.7936 16.6693 13.3333V12.8452C16.6693 12.6242 16.5814 12.4122 16.4252 12.2559L15.9995 11.8302C15.8948 11.7255 15.8359 11.5835 15.8359 11.4353V8.33332C15.8359 8.18628 15.8305 8.04052 15.8195 7.89681" stroke="#0E2F3E" stroke-width="2" stroke-linecap="round" stroke-linejoin="round"/>
</svg>
