<svg width="20" height="20" viewBox="0 0 20 20" fill="none" xmlns="http://www.w3.org/2000/svg">
<path d="M14.0378 9.04048C14.4284 8.64996 14.4284 8.01679 14.0378 7.62627C13.6473 7.23574 13.0141 7.23574 12.6236 7.62627L14.0378 9.04048ZM9.9974 11.6667L9.29029 12.3738C9.68081 12.7643 10.314 12.7643 10.7045 12.3738L9.9974 11.6667ZM7.37117 7.62627C6.98064 7.23574 6.34748 7.23574 5.95696 7.62627C5.56643 8.01679 5.56643 8.64996 5.95696 9.04048L7.37117 7.62627ZM12.6236 7.62627L9.29029 10.9596L10.7045 12.3738L14.0378 9.04048L12.6236 7.62627ZM10.7045 10.9596L7.37117 7.62627L5.95696 9.04048L9.29029 12.3738L10.7045 10.9596Z" fill="#0E2F3E"/>
</svg>
