<svg width="24" height="24" viewBox="0 0 24 24" fill="none" xmlns="http://www.w3.org/2000/svg">
<g clip-path="url(#clip0_1419_10719)">
<path d="M7.18497 19.605L7.7207 18.7606C7.46683 18.5996 7.15397 18.5613 6.86874 18.6563L7.18497 19.605ZM3 21L2.05132 20.6838C1.93154 21.0431 2.02506 21.4393 2.29289 21.7071C2.56073 21.9749 2.95689 22.0685 3.31623 21.9487L3 21ZM4.39499 16.815L5.34367 17.1313C5.43875 16.846 5.40045 16.5332 5.23938 16.2793L4.39499 16.815ZM12 22C17.5228 22 22 17.5228 22 12H20C20 16.4183 16.4183 20 12 20V22ZM6.64923 20.4494C8.19708 21.4315 10.0337 22 12 22V20C10.4242 20 8.95764 19.5454 7.7207 18.7606L6.64923 20.4494ZM6.86874 18.6563L2.68377 20.0513L3.31623 21.9487L7.5012 20.5537L6.86874 18.6563ZM3.94868 21.3162L5.34367 17.1313L3.44631 16.4988L2.05132 20.6838L3.94868 21.3162ZM2 12C2 13.9663 2.56855 15.8029 3.5506 17.3508L5.23938 16.2793C4.45458 15.0424 4 13.5758 4 12H2ZM12 2C6.47715 2 2 6.47715 2 12H4C4 7.58172 7.58172 4 12 4V2ZM22 12C22 6.47715 17.5228 2 12 2V4C16.4183 4 20 7.58172 20 12H22Z" fill="#0E2F3E"/>
<path d="M16 12H16.002V12.002H16V12Z" stroke="#0E2F3E" stroke-width="2" stroke-linecap="round" stroke-linejoin="round"/>
<path d="M12 12H12.002V12.002H12V12Z" stroke="#0E2F3E" stroke-width="2" stroke-linecap="round" stroke-linejoin="round"/>
<path d="M8 12H8.002V12.002H8V12Z" stroke="#0E2F3E" stroke-width="2" stroke-linecap="round" stroke-linejoin="round"/>
</g>
<defs>
<clipPath id="clip0_1419_10719">
<rect width="24" height="24" fill="white"/>
</clipPath>
</defs>
</svg>
