<svg width="113" height="113" viewBox="0 0 113 113" fill="none" xmlns="http://www.w3.org/2000/svg">
<g clip-path="url(#clip0_6606_37982)">
<path d="M88.3796 80.1514L46.8342 95.0453C44.9221 95.7307 42.8164 94.7364 42.1309 92.8243L22.2724 37.4304C21.5869 35.5183 22.5813 33.4126 24.4934 32.7271L50.6777 23.3401C51.6421 22.9944 52.707 23.0666 53.616 23.5394L74.9245 34.6225C75.7465 35.05 76.3769 35.772 76.6895 36.6442L90.6006 75.4481C91.2861 77.3602 90.2917 79.4659 88.3796 80.1514Z" stroke="#8740E7" stroke-width="5" stroke-linecap="round" stroke-linejoin="round"/>
<path d="M52.2578 77.4731L73.0305 70.0262" stroke="#8740E7" stroke-width="5" stroke-linecap="round" stroke-linejoin="round"/>
<path d="M48.5391 67.0869L69.3118 59.64" stroke="#8740E7" stroke-width="5" stroke-linecap="round" stroke-linejoin="round"/>
<path d="M76.954 37.3648L59.6434 43.5706C57.7314 44.2561 55.6256 43.2617 54.9402 41.3497L48.7344 24.0391" stroke="#8740E7" stroke-width="5" stroke-linecap="round" stroke-linejoin="round"/>
</g>
<defs>
<clipPath id="clip0_6606_37982">
<rect width="88.2689" height="88.2689" fill="white" transform="translate(0 29.7876) rotate(-19.7225)"/>
</clipPath>
</defs>
</svg>
