<svg width="30" height="30" viewBox="0 0 30 30" fill="none" xmlns="http://www.w3.org/2000/svg">
<path d="M23.8036 3.96027H6.80357C5.46421 3.96027 4.375 5.04948 4.375 6.38884V23.3888C4.375 24.7282 5.46421 25.8174 6.80357 25.8174H23.8036C25.1429 25.8174 26.2321 24.7282 26.2321 23.3888V6.38884C26.2321 5.04948 25.1429 3.96027 23.8036 3.96027ZM6.80357 23.3888V6.38884H23.8036L23.806 23.3888H6.80357Z" fill="white"/>
<path d="M12.875 17.3174L11.6607 16.1031L8.01786 20.9603H22.5893L16.5179 12.4603L12.875 17.3174Z" fill="white"/>
<path d="M11.0536 13.6746C12.0595 13.6746 12.875 12.8591 12.875 11.8531C12.875 10.8472 12.0595 10.0317 11.0536 10.0317C10.0476 10.0317 9.23214 10.8472 9.23214 11.8531C9.23214 12.8591 10.0476 13.6746 11.0536 13.6746Z" fill="white"/>
</svg>
