<svg width="167" height="167" viewBox="0 0 167 167" fill="none" xmlns="http://www.w3.org/2000/svg">
<path d="M63.8203 103.183L103.183 63.821" stroke="#FFD8BE" stroke-width="10" stroke-linecap="round" stroke-linejoin="round"/>
<path d="M52.5908 82.1159C54.5434 80.1632 54.5434 76.9974 52.5908 75.0448C50.6382 73.0922 47.4723 73.0922 45.5197 75.0448L52.5908 82.1159ZM91.9531 121.478C93.9057 119.526 93.9057 116.36 91.9531 114.407C90.0004 112.454 86.8346 112.454 84.882 114.407L91.9531 121.478ZM45.5197 75.0448L35.6792 84.8854L42.7502 91.9564L52.5908 82.1159L45.5197 75.0448ZM82.1125 131.319L91.9531 121.478L84.882 114.407L75.0414 124.248L82.1125 131.319ZM35.6792 131.319C48.5014 144.141 69.2903 144.141 82.1125 131.319L75.0414 124.248C66.1245 133.165 51.6672 133.165 42.7502 124.248L35.6792 131.319ZM35.6792 84.8854C22.8569 97.7076 22.8569 118.496 35.6792 131.319L42.7502 124.248C33.8333 115.331 33.8333 100.873 42.7502 91.9564L35.6792 84.8854Z" fill="#FFD8BE"/>
<path d="M75.0426 45.5217C73.09 47.4743 73.09 50.6401 75.0426 52.5927C76.9952 54.5454 80.161 54.5454 82.1137 52.5927L75.0426 45.5217ZM127.781 78.5789L124.245 75.0434L127.781 78.5789ZM114.405 84.884C112.452 86.8366 112.452 90.0024 114.405 91.955C116.357 93.9076 119.523 93.9076 121.476 91.955L114.405 84.884ZM82.1137 52.5927L91.9542 42.7522L84.8832 35.6811L75.0426 45.5217L82.1137 52.5927ZM124.245 75.0434L114.405 84.884L121.476 91.955L131.317 82.1145L124.245 75.0434ZM124.245 42.7522C133.162 51.6692 133.162 66.1264 124.245 75.0434L131.317 82.1145C144.139 69.2922 144.139 48.5033 131.317 35.6811L124.245 42.7522ZM91.9542 42.7522C100.871 33.8352 115.328 33.8352 124.245 42.7522L131.317 35.6811C118.494 22.8589 97.7054 22.8589 84.8832 35.6811L91.9542 42.7522Z" fill="#FFD8BE"/>
</svg>
