<svg width="31" height="30" viewBox="0 0 31 30" fill="none" xmlns="http://www.w3.org/2000/svg">
<path d="M12.125 18.3237L18.994 11.4547" stroke="white" stroke-width="2" stroke-linecap="round" stroke-linejoin="round"/>
<path d="M10.2532 14.7374C10.6438 14.3469 10.6438 13.7137 10.2532 13.3232C9.86272 12.9326 9.22955 12.9326 8.83903 13.3232L10.2532 14.7374ZM17.1223 21.6064C17.5128 21.2159 17.5128 20.5827 17.1223 20.1922C16.7318 19.8017 16.0986 19.8017 15.7081 20.1922L17.1223 21.6064ZM8.83903 13.3232L7.12177 15.0404L8.53598 16.4546L10.2532 14.7374L8.83903 13.3232ZM15.405 23.3237L17.1223 21.6064L15.7081 20.1922L13.9908 21.9095L15.405 23.3237ZM7.12177 23.3237C9.40912 25.611 13.1177 25.611 15.405 23.3237L13.9908 21.9095C12.4845 23.4158 10.0423 23.4158 8.53598 21.9095L7.12177 23.3237ZM7.12177 15.0404C4.83441 17.3278 4.83441 21.0363 7.12177 23.3237L8.53598 21.9095C7.02967 20.4032 7.02967 17.9609 8.53598 16.4546L7.12177 15.0404Z" fill="white"/>
<path d="M13.9882 8.17118C13.5977 8.5617 13.5977 9.19487 13.9882 9.58539C14.3787 9.97592 15.0119 9.97592 15.4024 9.58539L13.9882 8.17118ZM20.8572 15.0402C20.4667 15.4307 20.4667 16.0639 20.8572 16.4544C21.2478 16.845 21.8809 16.845 22.2715 16.4544L20.8572 15.0402ZM15.4024 9.58539L17.1197 7.86813L15.7055 6.45392L13.9882 8.17118L15.4024 9.58539ZM22.5745 13.323L20.8572 15.0402L22.2715 16.4544L23.9887 14.7372L22.5745 13.323ZM22.5745 7.86813C24.0808 9.37444 24.0808 11.8166 22.5745 13.323L23.9887 14.7372C26.2761 12.4498 26.2761 8.74128 23.9887 6.45392L22.5745 7.86813ZM17.1197 7.86813C18.626 6.36183 21.0682 6.36183 22.5745 7.86813L23.9887 6.45392C21.7014 4.16656 17.9928 4.16656 15.7055 6.45392L17.1197 7.86813Z" fill="white"/>
</svg>
