<svg width="26" height="26" viewBox="0 0 26 26" fill="none" xmlns="http://www.w3.org/2000/svg">
<g clip-path="url(#clip0_6076_38199)">
<path d="M10.1094 15.8571L15.8948 10.0547" stroke="#0E2F3E" stroke-width="2" stroke-linecap="round" stroke-linejoin="round"/>
<path d="M8.64176 12.9365C9.03171 12.5454 9.03078 11.9123 8.63968 11.5223C8.24859 11.1324 7.61542 11.1333 7.22547 11.5244L8.64176 12.9365ZM14.4272 18.739C14.8171 18.3479 14.8162 17.7147 14.4251 17.3248C14.034 16.9348 13.4008 16.9357 13.0109 17.3268L14.4272 18.739ZM7.22547 11.5244L5.77912 12.975L7.19541 14.3871L8.64176 12.9365L7.22547 11.5244ZM12.9808 20.1896L14.4272 18.739L13.0109 17.3268L11.5645 18.7774L12.9808 20.1896ZM5.77912 20.1896C7.76748 22.1838 10.9925 22.1838 12.9808 20.1896L11.5645 18.7774C10.3577 19.9878 8.40225 19.9878 7.19541 18.7774L5.77912 20.1896ZM5.77912 12.975C3.79238 14.9676 3.79238 18.197 5.77912 20.1896L7.19541 18.7774C5.98695 17.5654 5.98695 15.5992 7.19541 14.3871L5.77912 12.975Z" fill="#0E2F3E"/>
<path d="M11.5653 7.17234C11.1753 7.56344 11.1763 8.1966 11.5674 8.58655C11.9585 8.9765 12.5916 8.97557 12.9816 8.58447L11.5653 7.17234ZM17.3507 12.9748C16.9608 13.3659 16.9617 13.999 17.3528 14.389C17.7439 14.7789 18.377 14.778 18.767 14.3869L17.3507 12.9748ZM12.9816 8.58447L14.4279 7.13387L13.0116 5.72173L11.5653 7.17234L12.9816 8.58447ZM18.7971 11.5242L17.3507 12.9748L18.767 14.3869L20.2134 12.9363L18.7971 11.5242ZM18.7971 7.13387C20.0055 8.34588 20.0055 10.3122 18.7971 11.5242L20.2134 12.9363C22.2001 10.9437 22.2001 7.71431 20.2134 5.72173L18.7971 7.13387ZM14.4279 7.13387C15.6348 5.92348 17.5902 5.92348 18.7971 7.13387L20.2134 5.72173C18.225 3.72752 15 3.72752 13.0116 5.72173L14.4279 7.13387Z" fill="#0E2F3E"/>
</g>
<defs>
<clipPath id="clip0_6076_38199">
<rect width="24.5455" height="24.6176" fill="white" transform="translate(0.726562 0.646973)"/>
</clipPath>
</defs>
</svg>
