<svg width="20" height="20" viewBox="0 0 20 20" fill="none" xmlns="http://www.w3.org/2000/svg">
<path d="M9.2955 11.7929C8.90497 12.1834 8.90497 12.8166 9.2955 13.2071C9.68602 13.5976 10.3192 13.5976 10.7097 13.2071L9.2955 11.7929ZM12.5026 10L13.2097 10.7071C13.6002 10.3166 13.6002 9.68342 13.2097 9.29289L12.5026 10ZM10.7097 6.79289C10.3192 6.40237 9.68602 6.40237 9.2955 6.79289C8.90497 7.18342 8.90497 7.81658 9.2955 8.20711L10.7097 6.79289ZM3.33594 9C2.78365 9 2.33594 9.44772 2.33594 10C2.33594 10.5523 2.78365 11 3.33594 11L3.33594 9ZM10.7097 13.2071L13.2097 10.7071L11.7955 9.29289L9.2955 11.7929L10.7097 13.2071ZM13.2097 9.29289L10.7097 6.79289L9.2955 8.20711L11.7955 10.7071L13.2097 9.29289ZM3.33594 11L12.5026 11V9L3.33594 9L3.33594 11Z" fill="#0E2F3E"/>
<path d="M7.5 5.8335V4.16683C7.5 3.70659 7.8731 3.3335 8.33333 3.3335H15.8333C16.2936 3.3335 16.6667 3.70659 16.6667 4.16683V15.8335C16.6667 16.2937 16.2936 16.6668 15.8333 16.6668H8.33333C7.8731 16.6668 7.5 16.2937 7.5 15.8335V14.1668" stroke="#0E2F3E" stroke-width="2" stroke-linecap="round" stroke-linejoin="round"/>
</svg>
