<svg width="24" height="24" viewBox="0 0 24 24" fill="none" xmlns="http://www.w3.org/2000/svg">
<path d="M9.59758 12.9852C9.20706 13.3758 9.20706 14.0089 9.59758 14.3995C9.9881 14.79 10.6213 14.79 11.0118 14.3995L9.59758 12.9852ZM15.8579 9.5533C16.2485 9.16277 16.2485 8.52961 15.8579 8.13908C15.4674 7.74856 14.8343 7.74856 14.4437 8.13908L15.8579 9.5533ZM11.0118 14.3995L15.8579 9.5533L14.4437 8.13908L9.59758 12.9852L11.0118 14.3995Z" fill="#86A0A8"/>
<path d="M13.7302 20.7675L12.8357 21.2148L13.7302 20.7675ZM15.5804 20.6144L14.6246 20.3203L15.5804 20.6144ZM9.93283 13.6201L9.48561 14.5145L9.93283 13.6201ZM10.38 14.0673L11.2745 13.6201L10.38 14.0673ZM3.38572 8.41978L3.67981 9.37556L3.38572 8.41978ZM3.2326 10.27L2.78538 11.1644H2.78538L3.2326 10.27ZM19.1948 3.55543L19.4889 4.51121L19.1948 3.55543ZM20.4447 4.8053L21.4005 5.09938L20.4447 4.8053ZM18.9008 2.59965L3.09164 7.464L3.67981 9.37556L19.4889 4.51121L18.9008 2.59965ZM2.78538 11.1644L9.48561 14.5145L10.38 12.7257L3.67981 9.37555L2.78538 11.1644ZM9.48561 14.5145L12.8357 21.2148L14.6246 20.3203L11.2745 13.6201L9.48561 14.5145ZM16.5361 20.9085L21.4005 5.09938L19.4889 4.51121L14.6246 20.3203L16.5361 20.9085ZM12.8357 21.2148C13.6426 22.8286 16.0055 22.633 16.5361 20.9085L14.6246 20.3203L12.8357 21.2148ZM9.48561 14.5145V14.5145L11.2745 13.6201C11.0809 13.233 10.7671 12.9192 10.38 12.7257L9.48561 14.5145ZM3.09164 7.464C1.3671 7.99462 1.17155 10.3575 2.78538 11.1644L3.67981 9.37555L3.67981 9.37556L3.09164 7.464ZM19.4889 4.51121L19.4889 4.51121L21.4005 5.09938C21.8727 3.56483 20.4353 2.12748 18.9008 2.59965L19.4889 4.51121Z" fill="#86A0A8"/>
</svg>
