<svg width="31" height="30" viewBox="0 0 31 30" fill="none" xmlns="http://www.w3.org/2000/svg">
<path d="M10.6272 20.2322H11.4108C11.6281 20.2322 11.7962 20.1557 11.9152 20.0028C12.0341 19.8499 12.0936 19.6275 12.0936 19.3356C12.0936 19.0326 12.0329 18.7922 11.9113 18.6142C11.7897 18.4336 11.6268 18.3418 11.4225 18.339H10.6272V20.2322Z" fill="white"/>
<path d="M15.1507 18.339V22.3714H15.4921C15.8723 22.3714 16.14 22.2643 16.2951 22.0503C16.4503 21.8334 16.5318 21.4609 16.5396 20.9327V19.8777C16.5396 19.3106 16.4658 18.9159 16.3184 18.6935C16.171 18.4683 15.9201 18.3502 15.5658 18.339H15.1507Z" fill="white"/>
<path fill-rule="evenodd" clip-rule="evenodd" d="M25.1958 10.8574L25.1845 10.8233C25.1756 10.7964 25.1669 10.7698 25.1557 10.7433C25.0962 10.6145 25.0222 10.4919 24.9177 10.3875L17.632 3.10176C17.5276 2.99733 17.405 2.92326 17.2762 2.86376C17.2512 2.85205 17.2249 2.8438 17.1983 2.83543C17.1863 2.83165 17.1742 2.82784 17.1621 2.82369C17.0601 2.78969 16.9557 2.76783 16.8476 2.76176C16.8353 2.76064 16.8238 2.7572 16.8124 2.75382C16.7991 2.74986 16.7861 2.74597 16.7723 2.74597H8.27232C6.93296 2.74597 5.84375 3.83519 5.84375 5.17454V24.6031C5.84375 25.9425 6.93296 27.0317 8.27232 27.0317H22.8437C24.1831 27.0317 25.2723 25.9425 25.2723 24.6031V11.246C25.2723 11.2322 25.2684 11.2192 25.2645 11.2059C25.2611 11.1945 25.2577 11.183 25.2565 11.1707C25.2505 11.0638 25.2298 10.9594 25.1958 10.8574ZM16.7723 5.17454V11.246H22.8437L16.7723 5.17454ZM10.6272 21.2538V23.3888H9.48661V17.3174H11.4108C11.9695 17.3174 12.4143 17.5037 12.7454 17.8762C13.079 18.2487 13.2458 18.7324 13.2458 19.3273C13.2458 19.9222 13.0816 20.392 12.7532 20.7367C12.4247 21.0815 11.9695 21.2538 11.3876 21.2538H10.6272ZM14.0101 23.3888V17.3174H15.5037C16.1632 17.3174 16.6883 17.5426 17.0788 17.9929C17.4719 18.4433 17.6724 19.0604 17.6801 19.8444V20.8285C17.6801 21.6263 17.4836 22.2532 17.0904 22.7091C16.6999 23.1623 16.1607 23.3888 15.4727 23.3888H14.0101ZM19.6432 20.9119H21.4161V19.8944H19.6432V18.339H21.6295V17.3174H18.5026V23.3888H19.6432V20.9119Z" fill="white"/>
</svg>
