<svg width="22" height="22" viewBox="0 0 22 22" fill="none" xmlns="http://www.w3.org/2000/svg">
<path d="M18.3333 19.25H3.66667C3.16041 19.25 2.75 18.8396 2.75 18.3333V3.66667C2.75 3.16041 3.16041 2.75 3.66667 2.75H14.7168C14.9766 2.75 15.2243 2.86029 15.3981 3.05345L19.0147 7.07187C19.1662 7.2402 19.25 7.45864 19.25 7.68509V18.3333C19.25 18.8396 18.8396 19.25 18.3333 19.25Z" stroke="white" stroke-width="2" stroke-linecap="round" stroke-linejoin="round"/>
<path d="M15.5833 19.2499V20.2499C16.1356 20.2499 16.5833 19.8022 16.5833 19.2499H15.5833ZM6.41663 19.2499H5.41663C5.41663 19.8022 5.86434 20.2499 6.41663 20.2499V19.2499ZM7.33329 13.8333H14.6666V11.8333H7.33329V13.8333ZM14.5833 13.7499V19.2499H16.5833V13.7499H14.5833ZM15.5833 18.2499H6.41663V20.2499H15.5833V18.2499ZM7.41663 19.2499V13.7499H5.41663V19.2499H7.41663ZM14.6666 13.8333C14.6206 13.8333 14.5833 13.7959 14.5833 13.7499H16.5833C16.5833 12.6914 15.7252 11.8333 14.6666 11.8333V13.8333ZM7.33329 11.8333C6.27475 11.8333 5.41663 12.6914 5.41663 13.7499H7.41663C7.41663 13.7959 7.37932 13.8333 7.33329 13.8333V11.8333Z" fill="white"/>
<path d="M13.75 6.41675H8.25" stroke="white" stroke-width="2" stroke-linecap="round" stroke-linejoin="round"/>
</svg>
