<svg width="20" height="20" viewBox="0 0 20 20" fill="none" xmlns="http://www.w3.org/2000/svg">
<path d="M9.9974 13.3332C11.8383 13.3332 13.3307 11.8408 13.3307 9.99984C13.3307 8.15889 11.8383 6.6665 9.9974 6.6665C8.15645 6.6665 6.66406 8.15889 6.66406 9.99984C6.66406 11.8408 8.15645 13.3332 9.9974 13.3332Z" stroke="#0E2F3E" stroke-width="2" stroke-linecap="round" stroke-linejoin="round"/>
<path d="M15.914 6.52182L16.7799 6.02163L16.7799 6.02163L15.914 6.52182ZM15.9688 6.6167L15.1028 7.11689L15.1028 7.11689L15.9688 6.6167ZM16.6017 7.23951L17.0879 6.36563L17.0879 6.36563L16.6017 7.23951ZM17.8943 7.9586L17.4082 8.83248L17.4082 8.83248L17.8943 7.9586ZM18.3225 8.68494L17.3225 8.68721V8.68721L18.3225 8.68494ZM18.3285 11.3115L17.3285 11.3137V11.3137L18.3285 11.3115ZM17.8991 12.0422L17.4144 11.1676L17.4144 11.1676L17.8991 12.0422ZM16.6034 12.7603L17.0881 13.635L16.6034 12.7603ZM15.968 13.3844L15.1021 12.8842L15.1021 12.8843L15.968 13.3844ZM15.914 13.478L16.7799 13.9782L16.7799 13.9782L15.914 13.478ZM15.6907 14.3397L14.6909 14.3566V14.3566L15.6907 14.3397ZM15.7157 15.8238L14.7158 15.8407L15.7157 15.8238ZM15.3008 16.5586L14.7988 15.6937L14.7988 15.6937L15.3008 16.5586ZM13.0275 17.878L13.5294 18.7429H13.5294L13.0275 17.878ZM12.1802 17.8717L12.6949 17.0144H12.6949L12.1802 17.8717ZM10.9085 17.1083L10.3938 17.9656L10.9085 17.1083ZM9.08468 17.1073L9.59841 17.9652H9.59841L9.08468 17.1073ZM7.81878 17.8652L7.30506 17.0073L7.30506 17.0073L7.81878 17.8652ZM6.97461 17.8723L7.4739 17.0059L6.97461 17.8723ZM4.69408 16.5582L5.19337 15.6917L4.69408 16.5582ZM4.27694 15.8221L5.2768 15.8389V15.8389L4.27694 15.8221ZM4.30188 14.3444L3.30203 14.3276L4.30188 14.3444ZM4.08192 13.4884L4.9498 12.9916H4.9498L4.08192 13.4884ZM4.02399 13.3871L3.15611 13.8839L3.15611 13.8839L4.02399 13.3871ZM3.38776 12.7586L2.90161 13.6325L3.38776 12.7586ZM2.09824 12.0413L1.6121 12.9151H1.6121L2.09824 12.0413ZM1.67003 11.3149L0.670033 11.3172L1.67003 11.3149ZM1.66406 8.68841L2.66406 8.68614L1.66406 8.68841ZM2.09347 7.95762L2.57818 8.83229H2.57818L2.09347 7.95762ZM3.38921 7.23956L2.90449 6.36489H2.90449L3.38921 7.23956ZM4.02454 6.61543L3.15862 6.11524L3.15862 6.11524L4.02454 6.61543ZM4.07861 6.52182L4.94452 7.02202L4.94452 7.02202L4.07861 6.52182ZM4.30185 5.66013L5.30171 5.64331L4.30185 5.66013ZM4.27688 4.17604L3.27702 4.19286L4.27688 4.17604ZM4.69179 3.44128L5.19376 4.30617H5.19376L4.69179 3.44128ZM6.96511 2.12187L7.46708 2.98676L7.46708 2.98676L6.96511 2.12187ZM7.81235 2.12814L7.29763 2.9855V2.9855L7.81235 2.12814ZM9.08407 2.89162L8.56935 3.74898V3.74898L9.08407 2.89162ZM10.9079 2.89261L10.3942 2.03465L10.3942 2.03466L10.9079 2.89261ZM12.1738 2.13462L11.6601 1.27667V1.27667L12.1738 2.13462ZM13.018 2.12756L13.5172 1.26112V1.26112L13.018 2.12756ZM15.2985 3.44173L15.7978 2.57529V2.57529L15.2985 3.44173ZM15.7156 4.17778L14.7158 4.16095V4.16096L15.7156 4.17778ZM15.6907 5.66013L14.6909 5.64331V5.64331L15.6907 5.66013ZM15.048 7.02201L15.1028 7.11689L16.8347 6.11651L16.7799 6.02163L15.048 7.02201ZM16.1156 8.11339L17.4082 8.83248L18.3805 7.08472L17.0879 6.36563L16.1156 8.11339ZM17.3225 8.68721L17.3285 11.3137L19.3285 11.3092L19.3225 8.68267L17.3225 8.68721ZM17.4144 11.1676L16.1186 11.8856L17.0881 13.635L18.3838 12.9169L17.4144 11.1676ZM15.1021 12.8843L15.048 12.9779L16.7799 13.9782L16.8339 13.8846L15.1021 12.8843ZM14.6909 14.3566L14.7158 15.8407L16.7155 15.807L16.6906 14.3229L14.6909 14.3566ZM14.7988 15.6937L12.5255 17.0131L13.5294 18.7429L15.8027 17.4235L14.7988 15.6937ZM12.6949 17.0144L11.4232 16.2509L10.3938 17.9656L11.6655 18.7291L12.6949 17.0144ZM10.0506 15.8705H9.94089V17.8705H10.0506V15.8705ZM8.57096 16.2493L7.30506 17.0073L8.3325 18.7232L9.59841 17.9652L8.57096 16.2493ZM7.4739 17.0059L5.19337 15.6917L4.1948 17.4246L6.47532 18.7388L7.4739 17.0059ZM5.2768 15.8389L5.30174 14.3613L3.30203 14.3276L3.27708 15.8052L5.2768 15.8389ZM4.9498 12.9916L4.89187 12.8904L3.15611 13.8839L3.21404 13.9851L4.9498 12.9916ZM3.8739 11.8848L2.58439 11.1674L1.6121 12.9151L2.90161 13.6325L3.8739 11.8848ZM2.67003 11.3127L2.66406 8.68614L0.664067 8.69068L0.670033 11.3172L2.67003 11.3127ZM2.57818 8.83229L3.87392 8.11424L2.90449 6.36489L1.60875 7.08295L2.57818 8.83229ZM4.89045 7.11563L4.94452 7.02202L3.2127 6.02163L3.15862 6.11524L4.89045 7.11563ZM5.30171 5.64331L5.27674 4.15922L3.27702 4.19286L3.30199 5.67695L5.30171 5.64331ZM5.19376 4.30617L7.46708 2.98676L6.46314 1.25699L4.18982 2.5764L5.19376 4.30617ZM7.29763 2.9855L8.56935 3.74898L9.59878 2.03426L8.32706 1.27078L7.29763 2.9855ZM9.94193 4.12935H10.0517V2.12935H9.94193V4.12935ZM11.4216 3.75057L12.6875 2.99258L11.6601 1.27667L10.3942 2.03465L11.4216 3.75057ZM12.5187 2.994L14.7992 4.30817L15.7978 2.57529L13.5172 1.26112L12.5187 2.994ZM14.7158 4.16096L14.6909 5.64331L16.6906 5.67695L16.7155 4.1946L14.7158 4.16096ZM14.7992 4.30817C14.7467 4.27791 14.7148 4.22154 14.7158 4.16095L16.7155 4.1946C16.7267 3.52814 16.3753 2.90809 15.7978 2.57529L14.7992 4.30817ZM12.6875 2.99258C12.6356 3.02363 12.571 3.02417 12.5187 2.994L13.5172 1.26112C12.9412 0.929154 12.2305 0.935103 11.6601 1.27667L12.6875 2.99258ZM10.0517 4.12935C10.5342 4.12935 11.0076 3.99844 11.4216 3.75057L10.3942 2.03466C10.2907 2.09662 10.1723 2.12935 10.0517 2.12935V4.12935ZM8.56935 3.74898C8.98393 3.99787 9.45838 4.12935 9.94193 4.12935V2.12935C9.82104 2.12935 9.70243 2.09648 9.59878 2.03426L8.56935 3.74898ZM7.46708 2.98676C7.41458 3.01723 7.34967 3.01675 7.29763 2.9855L8.32706 1.27078C7.75462 0.927117 7.0406 0.921833 6.46314 1.25699L7.46708 2.98676ZM5.27674 4.15922C5.27776 4.21962 5.24601 4.27584 5.19376 4.30617L4.18982 2.5764C3.61508 2.90997 3.26584 3.52843 3.27702 4.19286L5.27674 4.15922ZM4.94452 7.02202C5.18638 6.60333 5.30984 6.12676 5.30171 5.64331L3.30199 5.67695C3.30403 5.79782 3.27316 5.91696 3.2127 6.02163L4.94452 7.02202ZM3.87392 8.11424C4.29707 7.87974 4.64846 7.53454 4.89045 7.11562L3.15862 6.11524C3.09813 6.21997 3.01028 6.30627 2.90449 6.36489L3.87392 8.11424ZM2.66406 8.68614C2.6642 8.74686 2.6313 8.80286 2.57818 8.83229L1.60875 7.08295C1.02447 7.40674 0.66255 8.02269 0.664067 8.69068L2.66406 8.68614ZM2.58439 11.1674C2.63713 11.1967 2.66989 11.2523 2.67003 11.3127L0.670033 11.3172C0.671541 11.9811 1.0319 12.5924 1.6121 12.9151L2.58439 11.1674ZM4.89187 12.8904C4.6505 12.4687 4.2985 12.121 3.8739 11.8848L2.90161 13.6325C3.00776 13.6916 3.09576 13.7785 3.15611 13.8839L4.89187 12.8904ZM5.30174 14.3613C5.30984 13.8814 5.18825 13.4082 4.9498 12.9916L3.21404 13.9851C3.27365 14.0893 3.30405 14.2076 3.30203 14.3276L5.30174 14.3613ZM5.19337 15.6917C5.24587 15.722 5.27782 15.7783 5.2768 15.8389L3.27708 15.8052C3.26583 16.4717 3.61723 17.0918 4.1948 17.4246L5.19337 15.6917ZM7.30506 17.0073C7.35692 16.9762 7.42153 16.9757 7.4739 17.0059L6.47532 18.7388C7.0514 19.0707 7.76206 19.0648 8.3325 18.7232L7.30506 17.0073ZM9.94089 15.8705C9.45839 15.8705 8.98493 16.0014 8.57096 16.2493L9.59841 17.9652C9.7019 17.9032 9.82026 17.8705 9.94089 17.8705V15.8705ZM11.4232 16.2509C11.0086 16.002 10.5342 15.8705 10.0506 15.8705V17.8705C10.1715 17.8705 10.2901 17.9034 10.3938 17.9656L11.4232 16.2509ZM12.5255 17.0131C12.578 16.9826 12.6429 16.9831 12.6949 17.0144L11.6655 18.7291C12.2379 19.0728 12.952 19.078 13.5294 18.7429L12.5255 17.0131ZM14.7158 15.8407C14.7148 15.7802 14.7466 15.724 14.7988 15.6937L15.8027 17.4235C16.3775 17.0899 16.7267 16.4714 16.7155 15.807L14.7158 15.8407ZM15.048 12.9779C14.8062 13.3965 14.6827 13.8731 14.6909 14.3566L16.6906 14.3229C16.6885 14.2021 16.7194 14.0829 16.7799 13.9782L15.048 12.9779ZM16.1186 11.8856C15.6955 12.1201 15.3441 12.4653 15.1021 12.8842L16.8339 13.8846C16.8944 13.7799 16.9823 13.6936 17.0881 13.635L16.1186 11.8856ZM17.3285 11.3137C17.3284 11.253 17.3613 11.197 17.4144 11.1676L18.3838 12.9169C18.9681 12.5931 19.33 11.9772 19.3285 11.3092L17.3285 11.3137ZM17.4082 8.83248C17.3554 8.80314 17.3227 8.74757 17.3225 8.68721L19.3225 8.68267C19.321 8.01873 18.9607 7.40749 18.3805 7.08472L17.4082 8.83248ZM15.1028 7.11689C15.3441 7.53453 15.6941 7.87892 16.1156 8.11339L17.0879 6.36563C16.9825 6.30702 16.895 6.22092 16.8347 6.11651L15.1028 7.11689ZM16.7799 6.02163C16.7194 5.91696 16.6885 5.79782 16.6906 5.67695L14.6909 5.64331C14.6827 6.12676 14.8062 6.60333 15.048 7.02202L16.7799 6.02163Z" fill="#0E2F3E"/>
</svg>
