<svg width="21" height="21" viewBox="0 0 21 21" fill="none" xmlns="http://www.w3.org/2000/svg">
<path d="M14.875 14.1991C16.9141 14.6796 18.375 15.976 18.375 17.4999" stroke="#9381FF" stroke-width="1.5" stroke-linecap="round" stroke-linejoin="round"/>
<path d="M2.625 17.5C2.625 15.567 4.9755 14 7.875 14C10.7745 14 13.125 15.567 13.125 17.5" stroke="#9381FF" stroke-width="1.5" stroke-linecap="round" stroke-linejoin="round"/>
<path d="M13.125 11.375C15.058 11.375 16.625 9.808 16.625 7.875C16.625 5.942 15.058 4.375 13.125 4.375" stroke="#9381FF" stroke-width="1.5" stroke-linecap="round" stroke-linejoin="round"/>
<path d="M7.875 11.375C9.808 11.375 11.375 9.808 11.375 7.875C11.375 5.942 9.808 4.375 7.875 4.375C5.942 4.375 4.375 5.942 4.375 7.875C4.375 9.808 5.942 11.375 7.875 11.375Z" stroke="#9381FF" stroke-width="1.5" stroke-linecap="round" stroke-linejoin="round"/>
</svg>
